<?xml version="1.0" encoding="utf-8"?>
<!-- Generator: Adobe Illustrator 23.0.3, SVG Export Plug-In . SVG Version: 6.00 Build 0)  -->
<svg version="1.1" id="Layer_1" xmlns="http://www.w3.org/2000/svg" xmlns:xlink="http://www.w3.org/1999/xlink" x="0px" y="0px"
	 viewBox="0 0 473.98 92.08" style="enable-background:new 0 0 473.98 92.08;" xml:space="preserve">
<style type="text/css">
	.st0{clip-path:url(#SVGID_2_);fill:url(#SVGID_3_);}
	.st1{clip-path:url(#SVGID_5_);fill:url(#SVGID_6_);}
	.st2{clip-path:url(#SVGID_8_);fill:url(#SVGID_9_);}
	.st3{clip-path:url(#SVGID_11_);fill:url(#SVGID_12_);}
	.st4{clip-path:url(#SVGID_14_);fill:url(#SVGID_15_);}
	.st5{clip-path:url(#SVGID_17_);fill:url(#SVGID_18_);}
	.st6{clip-path:url(#SVGID_20_);fill:url(#SVGID_21_);}
	.st7{clip-path:url(#SVGID_23_);fill:url(#SVGID_24_);}
	.st8{clip-path:url(#SVGID_26_);fill:url(#SVGID_27_);}
	.st9{clip-path:url(#SVGID_29_);fill:url(#SVGID_30_);}
	.st10{clip-path:url(#SVGID_32_);fill:url(#SVGID_33_);}
	.st11{clip-path:url(#SVGID_35_);fill:url(#SVGID_36_);}
	.st12{clip-path:url(#SVGID_38_);fill:url(#SVGID_39_);}
</style>
<g>
	<g>
		<defs>
			<path id="SVGID_1_" d="M86.82,50.14c-1.39,14.97-11.73,27.39-25.6,31.84L86.82,50.14z M50.06,61.28l29.31-37.07
				c2.1,2.75,3.82,5.79,5.1,9.06l-19.5,24c-0.46,0.56-0.37,1.38,0.19,1.84c0.24,0.2,0.53,0.29,0.82,0.29c0.38,0,0.76-0.17,1.01-0.48
				l18.47-22.74c0.91,3.06,1.43,6.29,1.5,9.62c-0.02,0.02-0.04,0.03-0.06,0.05L57.18,82.82c-0.05,0.07-0.07,0.15-0.11,0.22
				c-2.31,0.45-4.69,0.7-7.13,0.7c-11.53,0-21.85-5.3-28.65-13.59l26.26-32.28v22.54c0,0.64,0.36,1.18,0.93,1.38
				c0.15,0.05,0.3,0.08,0.45,0.08C49.35,61.86,49.77,61.65,50.06,61.28 M38.47,11.46L13.04,43.39
				C14.37,28.41,24.64,15.97,38.47,11.46 M12.91,47.74L42.7,10.35c2.34-0.47,4.76-0.72,7.24-0.72c11.03,0,20.94,4.85,27.73,12.52
				l-27.51,34.8V34.49c0-0.64-0.36-1.18-0.92-1.38c-0.56-0.2-1.19-0.01-1.59,0.48L19.66,68c-1.8-2.55-3.29-5.33-4.41-8.3l17.01-21.5
				c0.45-0.57,0.35-1.39-0.21-1.83c-0.57-0.45-1.39-0.35-1.84,0.21L14.28,56.72C13.47,53.85,13,50.84,12.91,47.74 M45.05,7.33
				c-1.3,0.16-2.57,0.38-3.83,0.66C23.53,11.98,10.27,27.8,10.27,46.68c0,0.06,0.01,0.11,0.01,0.17c0,1.33,0.08,2.64,0.21,3.93
				c0.3,2.91,0.93,5.72,1.82,8.41L3,70.97c-0.45,0.57-0.35,1.39,0.21,1.83c0.24,0.19,0.53,0.28,0.81,0.28c0.38,0,0.77-0.17,1.03-0.5
				l8.33-10.53c1.21,2.87,2.75,5.56,4.57,8.03L5.09,85.9c-0.46,0.56-0.37,1.38,0.19,1.84c0.24,0.2,0.53,0.29,0.82,0.29
				c0.38,0,0.76-0.17,1.01-0.48L19.6,72.2c7.28,8.64,18.17,14.14,30.33,14.14c21.87,0,39.66-17.79,39.66-39.66
				c0-4.52-0.77-8.86-2.17-12.91l7.77-9.57c0.46-0.56,0.37-1.38-0.19-1.84c-0.56-0.46-1.39-0.37-1.84,0.19l-6.83,8.41
				c-1.39-3.19-3.18-6.17-5.31-8.86L91.28,9.15c0.45-0.56,0.35-1.39-0.21-1.83c-0.57-0.45-1.39-0.35-1.84,0.21l-9.91,12.54
				C72.05,12.06,61.57,7.02,49.93,7.02C48.28,7.02,46.66,7.14,45.05,7.33"/>
		</defs>
		<clipPath id="SVGID_2_">
			<use xlink:href="#SVGID_1_"  style="overflow:visible;"/>
		</clipPath>
		
			<linearGradient id="SVGID_3_" gradientUnits="userSpaceOnUse" x1="-0.5732" y1="130.1018" x2="0.5996" y2="130.1018" gradientTransform="matrix(79.1049 0 0 -79.1049 48.0581 10339.1396)">
			<stop  offset="0" style="stop-color:#BF8F2F"/>
			<stop  offset="0.2757" style="stop-color:#BF8F2F"/>
			<stop  offset="0.3708" style="stop-color:#D3AF4D"/>
			<stop  offset="0.4817" style="stop-color:#ECD577"/>
			<stop  offset="0.5378" style="stop-color:#F7E587"/>
			<stop  offset="0.582" style="stop-color:#ECD476"/>
			<stop  offset="0.6696" style="stop-color:#D2AE4C"/>
			<stop  offset="0.7405" style="stop-color:#BF8F2F"/>
			<stop  offset="1" style="stop-color:#BF8F2F"/>
		</linearGradient>
		<rect x="2.55" y="6.87" class="st0" width="93.11" height="81.16"/>
	</g>
	<g>
		<defs>
			<path id="SVGID_4_" d="M145.83,24.66v33.88c0,1.01,0.05,2.22,0.15,3.63h-0.15c-0.67-1.09-1.28-2.01-1.84-2.78l-25.63-34.72h-2.3
				V68h2.99V32.16c0-0.75-0.02-1.38-0.06-1.9h0.12l0.39,0.61c0.4,0.7,0.87,1.41,1.39,2.11L146.7,68h2.11V24.66H145.83z"/>
		</defs>
		<clipPath id="SVGID_5_">
			<use xlink:href="#SVGID_4_"  style="overflow:visible;"/>
		</clipPath>
		
			<linearGradient id="SVGID_6_" gradientUnits="userSpaceOnUse" x1="-1.0254" y1="130.2555" x2="0.1475" y2="130.2555" gradientTransform="matrix(27.93 0 0 27.93 144.697 -3591.7026)">
			<stop  offset="0" style="stop-color:#BF8F2F"/>
			<stop  offset="0.2757" style="stop-color:#BF8F2F"/>
			<stop  offset="0.3708" style="stop-color:#D3AF4D"/>
			<stop  offset="0.4817" style="stop-color:#ECD577"/>
			<stop  offset="0.5378" style="stop-color:#F7E587"/>
			<stop  offset="0.582" style="stop-color:#ECD476"/>
			<stop  offset="0.6696" style="stop-color:#D2AE4C"/>
			<stop  offset="0.7405" style="stop-color:#BF8F2F"/>
			<stop  offset="1" style="stop-color:#BF8F2F"/>
		</linearGradient>
		<rect x="116.06" y="24.66" class="st1" width="32.76" height="43.33"/>
	</g>
	<g>
		<defs>
			<path id="SVGID_7_" d="M162.09,41.75c1.9-1.94,4.31-2.92,7.21-2.92c2.8,0,5,0.99,6.59,2.96c1.59,1.98,2.45,4.75,2.57,8.31h-19.89
				C159.02,46.48,160.19,43.7,162.09,41.75 M159.4,40.94c-2.57,3.09-3.85,6.9-3.85,11.41c0,5.22,1.23,9.26,3.69,12.12
				c2.46,2.86,5.68,4.29,9.67,4.29c3.95,0,7.53-1.14,10.73-3.42v-2.96c-3.3,2.56-6.69,3.84-10.15,3.84c-3.43,0-6.12-1.2-8.08-3.6
				c-1.96-2.4-2.95-5.72-2.95-9.97h22.91v-1.24c0-4.67-1.03-8.36-3.08-11.06c-2.05-2.7-5.01-4.05-8.86-4.05
				C165.31,36.3,161.97,37.84,159.4,40.94"/>
		</defs>
		<clipPath id="SVGID_8_">
			<use xlink:href="#SVGID_7_"  style="overflow:visible;"/>
		</clipPath>
		
			<linearGradient id="SVGID_9_" gradientUnits="userSpaceOnUse" x1="-1.037" y1="130.3273" x2="0.1359" y2="130.3273" gradientTransform="matrix(22.005 0 0 22.005 178.368 -2815.3274)">
			<stop  offset="0" style="stop-color:#BF8F2F"/>
			<stop  offset="0.2757" style="stop-color:#BF8F2F"/>
			<stop  offset="0.3708" style="stop-color:#D3AF4D"/>
			<stop  offset="0.4817" style="stop-color:#ECD577"/>
			<stop  offset="0.5378" style="stop-color:#F7E587"/>
			<stop  offset="0.582" style="stop-color:#ECD476"/>
			<stop  offset="0.6696" style="stop-color:#D2AE4C"/>
			<stop  offset="0.7405" style="stop-color:#BF8F2F"/>
			<stop  offset="1" style="stop-color:#BF8F2F"/>
		</linearGradient>
		<rect x="155.55" y="36.3" class="st2" width="25.81" height="32.46"/>
	</g>
	<g>
		<defs>
			<path id="SVGID_10_" d="M220.46,37.05l-7.34,24.69c-0.34,1.15-0.51,2.02-0.51,2.6h-0.24c-0.12-1.15-0.26-2.02-0.42-2.6
				l-7.01-24.69h-1.9l-7.86,24.69c-0.34,1.15-0.53,2.02-0.57,2.6h-0.24c-0.1-1.09-0.24-1.95-0.42-2.6l-7.19-24.69h-3.08L192.99,68
				h2.6l7.56-23.39c0.36-1.23,0.56-2.07,0.6-2.54h0.15c0.14,1.09,0.3,1.95,0.48,2.6L211.12,68h2.6l9.61-30.94H220.46z"/>
		</defs>
		<clipPath id="SVGID_11_">
			<use xlink:href="#SVGID_10_"  style="overflow:visible;"/>
		</clipPath>
		
			<linearGradient id="SVGID_12_" gradientUnits="userSpaceOnUse" x1="-0.5521" y1="130.2628" x2="0.6208" y2="130.2628" gradientTransform="matrix(33.831 0 0 33.831 202.326 -4354.394)">
			<stop  offset="0" style="stop-color:#BF8F2F"/>
			<stop  offset="0.2757" style="stop-color:#BF8F2F"/>
			<stop  offset="0.3708" style="stop-color:#D3AF4D"/>
			<stop  offset="0.4817" style="stop-color:#ECD577"/>
			<stop  offset="0.5378" style="stop-color:#F7E587"/>
			<stop  offset="0.582" style="stop-color:#ECD476"/>
			<stop  offset="0.6696" style="stop-color:#D2AE4C"/>
			<stop  offset="0.7405" style="stop-color:#BF8F2F"/>
			<stop  offset="1" style="stop-color:#BF8F2F"/>
		</linearGradient>
		<rect x="183.65" y="37.05" class="st3" width="39.68" height="30.94"/>
	</g>
	<g>
		<defs>
			<path id="SVGID_13_" d="M260.8,37.05l-7.35,24.69c-0.34,1.15-0.51,2.02-0.51,2.6h-0.24c-0.12-1.15-0.26-2.02-0.42-2.6
				l-7.01-24.69h-1.9l-7.86,24.69c-0.34,1.15-0.53,2.02-0.57,2.6h-0.24c-0.1-1.09-0.24-1.95-0.42-2.6l-7.19-24.69h-3.08L233.33,68
				h2.6l7.56-23.39c0.36-1.23,0.56-2.07,0.61-2.54h0.15c0.14,1.09,0.3,1.95,0.48,2.6L251.46,68h2.6l9.61-30.94H260.8z"/>
		</defs>
		<clipPath id="SVGID_14_">
			<use xlink:href="#SVGID_13_"  style="overflow:visible;"/>
		</clipPath>
		
			<linearGradient id="SVGID_15_" gradientUnits="userSpaceOnUse" x1="-0.3763" y1="130.2628" x2="0.7965" y2="130.2628" gradientTransform="matrix(33.832 0 0 33.832 236.719 -4354.5269)">
			<stop  offset="0" style="stop-color:#BF8F2F"/>
			<stop  offset="0.2757" style="stop-color:#BF8F2F"/>
			<stop  offset="0.3708" style="stop-color:#D3AF4D"/>
			<stop  offset="0.4817" style="stop-color:#ECD577"/>
			<stop  offset="0.5378" style="stop-color:#F7E587"/>
			<stop  offset="0.582" style="stop-color:#ECD476"/>
			<stop  offset="0.6696" style="stop-color:#D2AE4C"/>
			<stop  offset="0.7405" style="stop-color:#BF8F2F"/>
			<stop  offset="1" style="stop-color:#BF8F2F"/>
		</linearGradient>
		<rect x="223.99" y="37.05" class="st4" width="39.68" height="30.94"/>
	</g>
	<g>
		<defs>
			<path id="SVGID_16_" d="M272.47,41.75c1.9-1.94,4.31-2.92,7.21-2.92c2.8,0,5,0.99,6.59,2.96c1.59,1.98,2.45,4.75,2.57,8.31
				h-19.88C269.39,46.48,270.57,43.7,272.47,41.75 M269.78,40.94c-2.57,3.09-3.85,6.9-3.85,11.41c0,5.22,1.23,9.26,3.69,12.12
				c2.46,2.86,5.68,4.29,9.67,4.29c3.95,0,7.52-1.14,10.73-3.42v-2.96c-3.3,2.56-6.69,3.84-10.15,3.84c-3.42,0-6.12-1.2-8.08-3.6
				c-1.96-2.4-2.95-5.72-2.95-9.97h22.91v-1.24c0-4.67-1.03-8.36-3.08-11.06c-2.05-2.7-5.01-4.05-8.85-4.05
				C275.69,36.3,272.35,37.84,269.78,40.94"/>
		</defs>
		<clipPath id="SVGID_17_">
			<use xlink:href="#SVGID_16_"  style="overflow:visible;"/>
		</clipPath>
		
			<linearGradient id="SVGID_18_" gradientUnits="userSpaceOnUse" x1="-0.2977" y1="130.3273" x2="0.8752" y2="130.3273" gradientTransform="matrix(22.005 0 0 22.005 272.479 -2815.3276)">
			<stop  offset="0" style="stop-color:#BF8F2F"/>
			<stop  offset="0.2757" style="stop-color:#BF8F2F"/>
			<stop  offset="0.3708" style="stop-color:#D3AF4D"/>
			<stop  offset="0.4817" style="stop-color:#ECD577"/>
			<stop  offset="0.5378" style="stop-color:#F7E587"/>
			<stop  offset="0.582" style="stop-color:#ECD476"/>
			<stop  offset="0.6696" style="stop-color:#D2AE4C"/>
			<stop  offset="0.7405" style="stop-color:#BF8F2F"/>
			<stop  offset="1" style="stop-color:#BF8F2F"/>
		</linearGradient>
		<rect x="265.93" y="36.3" class="st5" width="25.81" height="32.46"/>
	</g>
	<g>
		<defs>
			<polygon id="SVGID_19_" points="297.87,22.18 297.87,22.18 297.87,68 300.65,68 300.65,22.18 300.65,22.18 			"/>
		</defs>
		<clipPath id="SVGID_20_">
			<use xlink:href="#SVGID_19_"  style="overflow:visible;"/>
		</clipPath>
		
			<linearGradient id="SVGID_21_" gradientUnits="userSpaceOnUse" x1="-0.1876" y1="130.1932" x2="0.9852" y2="130.1932" gradientTransform="matrix(20.25 -16.0714 16.0714 20.25 -1798.5026 -2587.0623)">
			<stop  offset="0" style="stop-color:#BF8F2F"/>
			<stop  offset="0.2757" style="stop-color:#BF8F2F"/>
			<stop  offset="0.3708" style="stop-color:#D3AF4D"/>
			<stop  offset="0.4817" style="stop-color:#ECD577"/>
			<stop  offset="0.5378" style="stop-color:#F7E587"/>
			<stop  offset="0.582" style="stop-color:#ECD476"/>
			<stop  offset="0.6696" style="stop-color:#D2AE4C"/>
			<stop  offset="0.7405" style="stop-color:#BF8F2F"/>
			<stop  offset="1" style="stop-color:#BF8F2F"/>
		</linearGradient>
		<polygon class="st6" points="298.94,69.35 322.96,50.29 299.57,20.83 275.56,39.89 		"/>
	</g>
	<g>
		<defs>
			<polygon id="SVGID_22_" points="309.01,22.18 309.01,22.18 309.01,68 311.79,68 311.79,22.18 311.79,22.18 			"/>
		</defs>
		<clipPath id="SVGID_23_">
			<use xlink:href="#SVGID_22_"  style="overflow:visible;"/>
		</clipPath>
		
			<linearGradient id="SVGID_24_" gradientUnits="userSpaceOnUse" x1="-0.1876" y1="130.2327" x2="0.9852" y2="130.2327" gradientTransform="matrix(20.25 -16.0714 16.0714 20.25 -1794.8303 -2582.4353)">
			<stop  offset="0" style="stop-color:#BF8F2F"/>
			<stop  offset="0.2757" style="stop-color:#BF8F2F"/>
			<stop  offset="0.3708" style="stop-color:#D3AF4D"/>
			<stop  offset="0.4817" style="stop-color:#ECD577"/>
			<stop  offset="0.5378" style="stop-color:#F7E587"/>
			<stop  offset="0.582" style="stop-color:#ECD476"/>
			<stop  offset="0.6696" style="stop-color:#D2AE4C"/>
			<stop  offset="0.7405" style="stop-color:#BF8F2F"/>
			<stop  offset="1" style="stop-color:#BF8F2F"/>
		</linearGradient>
		<polygon class="st7" points="310.09,69.35 334.1,50.29 310.72,20.83 286.7,39.89 		"/>
	</g>
	<g>
		<defs>
			<path id="SVGID_25_" d="M373.95,24.66l-15.93,34.66c-0.67,1.83-1.01,2.79-1.03,2.87l-0.33,0.97h-0.18
				c-0.22-0.65-0.43-1.23-0.63-1.75c-0.14-0.34-0.27-0.68-0.39-1.03c-0.12-0.34-0.23-0.62-0.33-0.82l-16.17-34.9h-2.78V68h2.99
				V36.51c0-1.91-0.07-3.84-0.21-5.77h0.15c0.44,1.65,0.92,3.01,1.42,4.08L355.99,68h0.97l15.41-33.36
				c0.42-0.89,0.95-2.15,1.57-3.78h0.12c-0.22,3.51-0.33,5.63-0.33,6.38V68h2.87V24.66H373.95z"/>
		</defs>
		<clipPath id="SVGID_26_">
			<use xlink:href="#SVGID_25_"  style="overflow:visible;"/>
		</clipPath>
		
			<linearGradient id="SVGID_27_" gradientUnits="userSpaceOnUse" x1="0.1102" y1="130.2341" x2="1.2831" y2="130.2341" gradientTransform="matrix(34.478 0 0 34.478 332.366 -4443.8809)">
			<stop  offset="0" style="stop-color:#BF8F2F"/>
			<stop  offset="0.2757" style="stop-color:#BF8F2F"/>
			<stop  offset="0.3708" style="stop-color:#D3AF4D"/>
			<stop  offset="0.4817" style="stop-color:#ECD577"/>
			<stop  offset="0.5378" style="stop-color:#F7E587"/>
			<stop  offset="0.582" style="stop-color:#ECD476"/>
			<stop  offset="0.6696" style="stop-color:#D2AE4C"/>
			<stop  offset="0.7405" style="stop-color:#BF8F2F"/>
			<stop  offset="1" style="stop-color:#BF8F2F"/>
		</linearGradient>
		<rect x="336.17" y="24.66" class="st8" width="40.44" height="43.33"/>
	</g>
	<g>
		<defs>
			<path id="SVGID_28_" d="M406,37.05v17.53c0,3.53-0.89,6.35-2.67,8.46c-1.78,2.11-4.11,3.17-7,3.17c-2.96,0-5.13-0.95-6.51-2.84
				c-1.38-1.89-2.07-4.94-2.07-9.13v-17.2h-2.81v17.89c0,9.21,3.66,13.81,10.97,13.81c4.49,0,7.82-2.13,9.97-6.38H406V68h2.78V37.05
				H406z"/>
		</defs>
		<clipPath id="SVGID_29_">
			<use xlink:href="#SVGID_28_"  style="overflow:visible;"/>
		</clipPath>
		
			<linearGradient id="SVGID_30_" gradientUnits="userSpaceOnUse" x1="0.5405" y1="130.3452" x2="1.7134" y2="130.3452" gradientTransform="matrix(20.33 0 0 20.33 373.95 -2597.0137)">
			<stop  offset="0" style="stop-color:#BF8F2F"/>
			<stop  offset="0.2757" style="stop-color:#BF8F2F"/>
			<stop  offset="0.3708" style="stop-color:#D3AF4D"/>
			<stop  offset="0.4817" style="stop-color:#ECD577"/>
			<stop  offset="0.5378" style="stop-color:#F7E587"/>
			<stop  offset="0.582" style="stop-color:#ECD476"/>
			<stop  offset="0.6696" style="stop-color:#D2AE4C"/>
			<stop  offset="0.7405" style="stop-color:#BF8F2F"/>
			<stop  offset="1" style="stop-color:#BF8F2F"/>
		</linearGradient>
		<rect x="384.94" y="37.05" class="st9" width="23.84" height="31.7"/>
	</g>
	<g>
		<defs>
			<path id="SVGID_31_" d="M418.55,38.62c-1.92,1.55-2.89,3.59-2.89,6.1c0,1.98,0.6,3.65,1.8,5.03c1.2,1.38,3.28,2.72,6.24,4
				c2.4,1.03,4.13,2.03,5.2,2.99c1.07,0.97,1.6,2.14,1.6,3.51c0,3.97-2.43,5.95-7.28,5.95c-1.09,0-2.38-0.26-3.87-0.78
				c-1.49-0.53-2.76-1.24-3.81-2.15v3.35c1.99,1.41,4.48,2.12,7.46,2.12c3.24,0,5.79-0.8,7.63-2.4c1.85-1.6,2.76-3.63,2.76-6.09
				c0-2.05-0.6-3.7-1.81-4.94c-1.21-1.24-3.42-2.58-6.65-4.03c-2.68-1.19-4.41-2.24-5.2-3.16c-0.79-0.92-1.18-2.11-1.18-3.58
				c0-1.69,0.63-3.07,1.88-4.13c1.25-1.06,2.89-1.59,4.92-1.59c2.46,0,4.84,0.74,7.13,2.24v-3.14c-1.89-1.09-4.17-1.63-6.83-1.63
				C422.85,36.3,420.48,37.07,418.55,38.62"/>
		</defs>
		<clipPath id="SVGID_32_">
			<use xlink:href="#SVGID_31_"  style="overflow:visible;"/>
		</clipPath>
		
			<linearGradient id="SVGID_33_" gradientUnits="userSpaceOnUse" x1="1.0179" y1="130.4094" x2="2.1907" y2="130.4094" gradientTransform="matrix(15.228 0 0 15.228 400.046 -1933.3481)">
			<stop  offset="0" style="stop-color:#BF8F2F"/>
			<stop  offset="0.2757" style="stop-color:#BF8F2F"/>
			<stop  offset="0.3708" style="stop-color:#D3AF4D"/>
			<stop  offset="0.4817" style="stop-color:#ECD577"/>
			<stop  offset="0.5378" style="stop-color:#F7E587"/>
			<stop  offset="0.582" style="stop-color:#ECD476"/>
			<stop  offset="0.6696" style="stop-color:#D2AE4C"/>
			<stop  offset="0.7405" style="stop-color:#BF8F2F"/>
			<stop  offset="1" style="stop-color:#BF8F2F"/>
		</linearGradient>
		<rect x="415.55" y="36.3" class="st10" width="17.86" height="32.46"/>
	</g>
	<g>
		<defs>
			<path id="SVGID_34_" d="M439.63,68h2.78V37.05h-2.78V68z M439.4,25.28c-0.47,0.41-0.71,0.95-0.71,1.62
				c0,0.68,0.23,1.25,0.69,1.69c0.46,0.44,1,0.67,1.6,0.67c0.64,0,1.2-0.23,1.66-0.7c0.46-0.46,0.69-1.02,0.69-1.66
				c0-0.68-0.24-1.23-0.71-1.63c-0.47-0.4-1.02-0.6-1.65-0.6C440.4,24.66,439.87,24.87,439.4,25.28"/>
		</defs>
		<clipPath id="SVGID_35_">
			<use xlink:href="#SVGID_34_"  style="overflow:visible;"/>
		</clipPath>
		
			<linearGradient id="SVGID_36_" gradientUnits="userSpaceOnUse" x1="0.5157" y1="129.4646" x2="1.6886" y2="129.4646" gradientTransform="matrix(11.25 18.9643 -18.9643 11.25 2886.4143 -1426.6781)">
			<stop  offset="0" style="stop-color:#BF8F2F"/>
			<stop  offset="0.2757" style="stop-color:#BF8F2F"/>
			<stop  offset="0.3708" style="stop-color:#D3AF4D"/>
			<stop  offset="0.4817" style="stop-color:#ECD577"/>
			<stop  offset="0.5378" style="stop-color:#F7E587"/>
			<stop  offset="0.582" style="stop-color:#ECD476"/>
			<stop  offset="0.6696" style="stop-color:#D2AE4C"/>
			<stop  offset="0.7405" style="stop-color:#BF8F2F"/>
			<stop  offset="1" style="stop-color:#BF8F2F"/>
		</linearGradient>
		<polygon class="st11" points="419.67,35.94 439.9,70.04 462.36,56.72 442.13,22.62 		"/>
	</g>
	<g>
		<defs>
			<path id="SVGID_37_" d="M452.89,41c-2.9,3.13-4.35,7.16-4.35,12.07c0,4.68,1.29,8.46,3.87,11.35c2.58,2.89,5.97,4.34,10.19,4.34
				c3.18,0,5.92-0.71,8.22-2.12v-2.9c-2.3,1.65-5,2.48-8.1,2.48c-3.39,0-6.11-1.22-8.17-3.66c-2.07-2.44-3.1-5.66-3.1-9.67
				c0-4.15,1.13-7.53,3.39-10.14c2.25-2.61,5.2-3.91,8.82-3.91c2.64,0,5.07,0.69,7.28,2.05v-3.14c-2.22-0.96-4.5-1.45-6.86-1.45
				C459.52,36.3,455.79,37.86,452.89,41"/>
		</defs>
		<clipPath id="SVGID_38_">
			<use xlink:href="#SVGID_37_"  style="overflow:visible;"/>
		</clipPath>
		
			<linearGradient id="SVGID_39_" gradientUnits="userSpaceOnUse" x1="1.0665" y1="130.3555" x2="2.2393" y2="130.3555" gradientTransform="matrix(19.093 0 0 19.093 428.173 -2436.3447)">
			<stop  offset="0" style="stop-color:#BF8F2F"/>
			<stop  offset="0.2757" style="stop-color:#BF8F2F"/>
			<stop  offset="0.3708" style="stop-color:#D3AF4D"/>
			<stop  offset="0.4817" style="stop-color:#ECD577"/>
			<stop  offset="0.5378" style="stop-color:#F7E587"/>
			<stop  offset="0.582" style="stop-color:#ECD476"/>
			<stop  offset="0.6696" style="stop-color:#D2AE4C"/>
			<stop  offset="0.7405" style="stop-color:#BF8F2F"/>
			<stop  offset="1" style="stop-color:#BF8F2F"/>
		</linearGradient>
		<rect x="448.54" y="36.3" class="st12" width="22.39" height="32.46"/>
	</g>
</g>
</svg>
